<?xml version="1.0" encoding="UTF-8"?>
<!DOCTYPE svg PUBLIC "-//W3C//DTD SVG 1.1//EN" "http://www.w3.org/Graphics/SVG/1.1/DTD/svg11.dtd">
<svg xmlns="http://www.w3.org/2000/svg" version="1.1" width="312px" height="110px" style="shape-rendering:geometricPrecision; text-rendering:geometricPrecision; image-rendering:optimizeQuality; fill-rule:evenodd; clip-rule:evenodd" xmlns:xlink="http://www.w3.org/1999/xlink">
<g><path style="opacity:1" fill="#facb3a" d="M 230.5,-0.5 C 244.833,-0.5 259.167,-0.5 273.5,-0.5C 273.97,0.693482 274.97,1.36015 276.5,1.5C 278.818,1.99712 281.152,2.33045 283.5,2.5C 286.152,2.40953 288.485,3.07619 290.5,4.5C 292.484,7.16388 295.151,8.83055 298.5,9.5C 301.946,10.6118 303.946,12.9452 304.5,16.5C 304.799,18.4553 305.799,19.7886 307.5,20.5C 310.115,27.0639 310.115,33.7306 307.5,40.5C 305.259,41.2998 304.259,42.9664 304.5,45.5C 301.298,54.0442 295.965,61.0442 288.5,66.5C 286.167,66.8333 284.833,68.1667 284.5,70.5C 281.288,70.7124 279.288,72.3791 278.5,75.5C 276.97,77.3465 274.97,78.3465 272.5,78.5C 269.181,78.8244 266.848,80.491 265.5,83.5C 259.708,88.3963 253.041,91.7296 245.5,93.5C 241.132,93.8357 237.465,95.5023 234.5,98.5C 228.58,101.695 222.247,103.695 215.5,104.5C 211.839,103.428 208.505,104.094 205.5,106.5C 205.167,106.5 204.833,106.5 204.5,106.5C 202.219,106.077 200.552,106.744 199.5,108.5C 198.508,108.328 197.842,108.662 197.5,109.5C 182.5,109.5 167.5,109.5 152.5,109.5C 152.5,109.167 152.5,108.833 152.5,108.5C 150.977,106.718 148.977,105.385 146.5,104.5C 144.895,103.57 143.395,103.57 142,104.5C 141.355,103.354 140.522,102.354 139.5,101.5C 139.957,100.702 140.624,100.369 141.5,100.5C 143.435,101.15 145.435,101.483 147.5,101.5C 164.874,104.098 182.207,103.765 199.5,100.5C 204.211,99.9897 208.878,99.1564 213.5,98C 215.119,97.7645 216.119,96.9311 216.5,95.5C 218.214,94.2616 220.214,93.595 222.5,93.5C 225.393,93.9689 227.393,92.9689 228.5,90.5C 234.584,86.2344 241.251,82.901 248.5,80.5C 252.141,80.3484 254.807,78.6818 256.5,75.5C 259.269,74.5627 261.936,73.3961 264.5,72C 265.305,70.8873 265.972,69.7206 266.5,68.5C 273.214,64.1195 278.548,58.4529 282.5,51.5C 287.336,45.4591 289.67,38.4591 289.5,30.5C 291.368,26.4839 290.368,23.4839 286.5,21.5C 286.167,20.8333 285.833,20.1667 285.5,19.5C 284.833,17.5 283.5,16.1667 281.5,15.5C 278.369,14.0168 275.369,12.3501 272.5,10.5C 272.179,8.95186 271.179,8.28519 269.5,8.5C 254.623,5.40621 239.623,4.73954 224.5,6.5C 218.568,5.64473 218.234,4.3114 223.5,2.5C 223.833,2.5 224.167,2.5 224.5,2.5C 226.781,2.92271 228.448,2.25605 229.5,0.5C 230.167,0.5 230.5,0.166667 230.5,-0.5 Z"/></g>
<g><path style="opacity:1" fill="#fbde98" d="M 273.5,-0.5 C 275.833,-0.5 278.167,-0.5 280.5,-0.5C 281.9,0.100078 282.9,1.10008 283.5,2.5C 281.152,2.33045 278.818,1.99712 276.5,1.5C 274.97,1.36015 273.97,0.693482 273.5,-0.5 Z"/></g>
<g><path style="opacity:1" fill="#fbe3a7" d="M 229.5,0.5 C 228.448,2.25605 226.781,2.92271 224.5,2.5C 225.552,0.743953 227.219,0.0772868 229.5,0.5 Z"/></g>
<g><path style="opacity:1" fill="#fddb8d" d="M 223.5,2.5 C 218.234,4.3114 218.568,5.64473 224.5,6.5C 222.735,7.46138 220.735,7.79472 218.5,7.5C 217.965,5.55437 216.632,4.55437 214.5,4.5C 217.219,3.08699 220.219,2.42032 223.5,2.5 Z"/></g>
<g><path style="opacity:1" fill="#fcdf9b" d="M 290.5,4.5 C 294.209,4.679 296.876,6.34567 298.5,9.5C 295.151,8.83055 292.484,7.16388 290.5,4.5 Z"/></g>
<g><path style="opacity:1" fill="#faeec3" d="M 269.5,8.5 C 271.179,8.28519 272.179,8.95186 272.5,10.5C 270.821,10.7148 269.821,10.0481 269.5,8.5 Z"/></g>
<g><path style="opacity:1" fill="#fbe3b4" d="M 211.5,8.5 C 210.817,10.1765 209.483,10.8432 207.5,10.5C 208.183,8.82351 209.517,8.15684 211.5,8.5 Z"/></g>
<g><path style="opacity:1" fill="#fcd56d" d="M 214.5,4.5 C 216.632,4.55437 217.965,5.55437 218.5,7.5C 216.283,8.36863 213.95,8.70197 211.5,8.5C 209.517,8.15684 208.183,8.82351 207.5,10.5C 203.981,11.9636 200.314,12.9636 196.5,13.5C 192.995,13.3059 192.662,12.3059 195.5,10.5C 201.367,7.25246 207.7,5.25246 214.5,4.5 Z"/></g>
<g><path style="opacity:1" fill="#fce3a9" d="M 195.5,10.5 C 192.662,12.3059 192.995,13.3059 196.5,13.5C 186.53,17.1129 176.864,21.6129 167.5,27C 166.056,27.7805 164.723,27.6139 163.5,26.5C 165.594,24.404 167.927,22.5706 170.5,21C 176.019,18.7153 181.352,16.0486 186.5,13C 189.521,12.1506 192.521,11.3173 195.5,10.5 Z"/></g>
<g><path style="opacity:1" fill="#fde8b5" d="M 281.5,15.5 C 283.5,16.1667 284.833,17.5 285.5,19.5C 283.167,19.1667 281.833,17.8333 281.5,15.5 Z"/></g>
<g><path style="opacity:1" fill="#fadd99" d="M 304.5,16.5 C 306.912,16.6941 307.912,18.0274 307.5,20.5C 305.799,19.7886 304.799,18.4553 304.5,16.5 Z"/></g>
<g><path style="opacity:1" fill="#fddb82" d="M 286.5,21.5 C 290.368,23.4839 291.368,26.4839 289.5,30.5C 288.633,27.5565 287.633,24.5565 286.5,21.5 Z"/></g>
<g><path style="opacity:1" fill="#186d85" d="M 72.5,29.5 C 72.2771,32.1142 73.4438,33.7809 76,34.5C 76.6667,43.1667 76.6667,51.8333 76,60.5C 73.3291,62.6716 70.8291,65.005 68.5,67.5C 59.4938,67.6664 50.4938,67.4998 41.5,67C 40.0577,66.6232 39.0577,65.7899 38.5,64.5C 36.6564,55.6394 35.9897,46.6394 36.5,37.5C 36.9707,35.4214 37.6373,33.4214 38.5,31.5C 39.0577,30.2101 40.0577,29.3768 41.5,29C 52.0083,28.1748 62.3416,28.3415 72.5,29.5 Z M 46.5,34.5 C 52.8333,34.5 59.1667,34.5 65.5,34.5C 66.7311,35.7177 67.8978,37.051 69,38.5C 69.6667,44.8333 69.6667,51.1667 69,57.5C 67.8978,58.949 66.7311,60.2823 65.5,61.5C 59.1667,61.5 52.8333,61.5 46.5,61.5C 42.9941,57.997 41.6608,53.6637 42.5,48.5C 41.7015,43.0976 43.0348,38.431 46.5,34.5 Z"/></g>
<g><path style="opacity:1" fill="#1a6d86" d="M 115.5,28.5 C 117.771,30.4685 120.105,32.4685 122.5,34.5C 123.348,36.4086 123.682,38.4086 123.5,40.5C 121.833,40.5 120.167,40.5 118.5,40.5C 118.676,36.8079 117.009,34.8079 113.5,34.5C 106.833,34.5 100.167,34.5 93.5,34.5C 91.5165,34.3832 89.8498,35.0499 88.5,36.5C 87.3354,43.8107 87.1687,51.144 88,58.5C 89.2635,60.607 91.0968,61.607 93.5,61.5C 100.167,61.5 106.833,61.5 113.5,61.5C 116.5,61.8333 117.833,60.5 117.5,57.5C 119.114,55.9254 121.114,55.2587 123.5,55.5C 123.595,58.6916 122.929,61.6916 121.5,64.5C 121.047,65.4584 120.381,66.2917 119.5,67C 109.167,67.6667 98.8333,67.6667 88.5,67C 86.6763,66.34 85.343,65.1733 84.5,63.5C 82.8654,52.7114 83.1987,42.0447 85.5,31.5C 86.0577,30.2101 87.0577,29.3768 88.5,29C 97.4938,28.5002 106.494,28.3336 115.5,28.5 Z"/></g>
<g><path style="opacity:1" fill="#9a9899" d="M 168.5,28.5 C 170.163,30.4904 172.163,32.157 174.5,33.5C 175.154,35.1151 175.654,36.7818 176,38.5C 176.5,48.1609 176.666,57.8276 176.5,67.5C 174.5,67.5 172.5,67.5 170.5,67.5C 170.666,57.1613 170.5,46.828 170,36.5C 168.89,34.9632 167.39,34.2965 165.5,34.5C 163.833,34.5 162.167,34.5 160.5,34.5C 157.762,33.9648 155.928,34.9648 155,37.5C 154.5,47.4944 154.334,57.4944 154.5,67.5C 153.833,67.5 153.167,67.5 152.5,67.5C 151.5,67.5 150.5,67.5 149.5,67.5C 149.666,57.1613 149.5,46.828 149,36.5C 147.67,35.4178 146.17,34.7512 144.5,34.5C 142.5,34.5 140.5,34.5 138.5,34.5C 136.089,34.1367 134.589,35.1367 134,37.5C 133.5,47.4944 133.334,57.4944 133.5,67.5C 131.833,67.5 130.167,67.5 128.5,67.5C 128.333,56.8281 128.5,46.1615 129,35.5C 129.926,33.3083 131.093,31.3083 132.5,29.5C 144.371,29.1488 156.371,28.8155 168.5,28.5 Z"/></g>
<g><path style="opacity:1" fill="#9f9e9d" d="M 190.5,28.5 C 199.839,28.3335 209.173,28.5002 218.5,29C 221.079,30.0757 222.746,31.909 223.5,34.5C 223.5,45.5 223.5,56.5 223.5,67.5C 220.833,67.5 218.167,67.5 215.5,67.5C 215.5,61.8333 215.5,56.1667 215.5,50.5C 206.833,50.5 198.167,50.5 189.5,50.5C 187.55,55.7351 186.883,61.4018 187.5,67.5C 185.19,67.7583 183.19,67.7583 181.5,67.5C 181.334,57.4944 181.5,47.4944 182,37.5C 183,35.5 184,33.5 185,31.5C 186.876,30.3913 188.709,29.3913 190.5,28.5 Z M 192.5,34.5 C 199.175,34.3337 205.842,34.5004 212.5,35C 215.125,37.1962 216.125,40.0295 215.5,43.5C 206.833,43.5 198.167,43.5 189.5,43.5C 189.34,41.8008 189.506,40.1341 190,38.5C 191.481,37.5291 192.315,36.1958 192.5,34.5 Z"/></g>
<g><path style="opacity:1" fill="#9d9d9d" d="M 282.5,51.5 C 278.548,58.4529 273.214,64.1195 266.5,68.5C 258.01,67.6704 249.343,67.1704 240.5,67C 239.253,65.5421 239.253,64.0421 240.5,62.5C 250.167,61.8333 259.833,61.1667 269.5,60.5C 273.596,58.7339 274.262,56.2339 271.5,53C 262.09,51.8868 252.757,51.0534 243.5,50.5C 241.196,47.3244 239.863,43.6577 239.5,39.5C 239.653,36.1995 240.653,33.1995 242.5,30.5C 242.611,29.8826 242.944,29.3826 243.5,29C 255.162,28.5001 266.829,28.3335 278.5,28.5C 278.5,30.5 278.5,32.5 278.5,34.5C 268.81,34.1682 259.144,34.5016 249.5,35.5C 244.36,38.4347 244.36,41.268 249.5,44C 258.167,44.3333 266.833,44.6667 275.5,45C 277.6,47.51 279.934,49.6766 282.5,51.5 Z"/></g>
<g><path style="opacity:1" fill="#176c86" d="M 4.5,29.5 C 5.83333,29.5 7.16667,29.5 8.5,29.5C 8.16814,39.5222 8.50148,49.5222 9.5,59.5C 10.8498,60.9501 12.5165,61.6168 14.5,61.5C 20.1667,61.5 25.8333,61.5 31.5,61.5C 31.5,63.5 31.5,65.5 31.5,67.5C 24.1591,67.6663 16.8258,67.4997 9.5,67C 8.05773,66.6232 7.05773,65.7899 6.5,64.5C 6.29142,63.0783 5.79142,61.745 5,60.5C 4.50017,50.172 4.33351,39.8387 4.5,29.5 Z"/></g>
<g><path style="opacity:1" fill="#aca5a1" d="M 234.5,29.5 C 234.5,42.1667 234.5,54.8333 234.5,67.5C 232.167,67.5 229.833,67.5 227.5,67.5C 227.5,54.8333 227.5,42.1667 227.5,29.5C 229.833,29.5 232.167,29.5 234.5,29.5 Z"/></g>
<g><path style="opacity:1" fill="#56a5c9" d="M 8.5,29.5 C 10.3112,38.4462 11.1446,47.7796 11,57.5C 12.3756,58.7051 13.5423,60.0384 14.5,61.5C 12.5165,61.6168 10.8498,60.9501 9.5,59.5C 8.50148,49.5222 8.16814,39.5222 8.5,29.5 Z"/></g>
<g><path style="opacity:1" fill="#85878a" d="M 4.5,29.5 C 4.33351,39.8387 4.50017,50.172 5,60.5C 5.79142,61.745 6.29142,63.0783 6.5,64.5C 4.22387,64.2435 3.0572,62.9102 3,60.5C 2.83333,55.3333 2.66667,50.1667 2.5,45C 2.50544,39.4543 3.17211,34.2876 4.5,29.5 Z"/></g>
<g><path style="opacity:1" fill="#70b9d7" d="M 115.5,28.5 C 119.17,28.811 122.17,30.4777 124.5,33.5C 125.348,35.4086 125.682,37.4086 125.5,39.5C 125.158,40.3382 124.492,40.6716 123.5,40.5C 123.682,38.4086 123.348,36.4086 122.5,34.5C 120.105,32.4685 117.771,30.4685 115.5,28.5 Z"/></g>
<g><path style="opacity:1" fill="#f7f3ec" d="M 190.5,28.5 C 188.709,29.3913 186.876,30.3913 185,31.5C 184,33.5 183,35.5 182,37.5C 181.5,47.4944 181.334,57.4944 181.5,67.5C 180.173,63.049 179.506,58.2157 179.5,53C 179.667,48.1667 179.833,43.3333 180,38.5C 180.811,32.1857 184.311,28.8524 190.5,28.5 Z"/></g>
<g><path style="opacity:1" fill="#c9b09e" d="M 65.5,34.5 C 67.9928,34.3291 69.8261,35.3291 71,37.5C 71.6667,44.5 71.6667,51.5 71,58.5C 70.0718,61.0352 68.2385,62.0352 65.5,61.5C 66.7311,60.2823 67.8978,58.949 69,57.5C 69.6667,51.1667 69.6667,44.8333 69,38.5C 67.8978,37.051 66.7311,35.7177 65.5,34.5 Z"/></g>
<g><path style="opacity:1" fill="#f4dab9" d="M 144.5,34.5 C 146.17,34.7512 147.67,35.4178 149,36.5C 149.5,46.828 149.666,57.1613 149.5,67.5C 150.5,67.5 151.5,67.5 152.5,67.5C 151.116,68.8009 149.616,68.8009 148,67.5C 147.667,57.8333 147.333,48.1667 147,38.5C 145.915,37.2644 145.082,35.9311 144.5,34.5 Z"/></g>
<g><path style="opacity:1" fill="#6eb9dc" d="M 72.5,29.5 C 74.1288,30.6253 75.6288,31.9586 77,33.5C 77.6667,43.1667 77.6667,52.8333 77,62.5C 74.9806,65.7118 72.1473,67.3784 68.5,67.5C 70.8291,65.005 73.3291,62.6716 76,60.5C 76.6667,51.8333 76.6667,43.1667 76,34.5C 73.4438,33.7809 72.2771,32.1142 72.5,29.5 Z"/></g>
<g><path style="opacity:1" fill="#a9978d" d="M 85.5,31.5 C 83.1987,42.0447 82.8654,52.7114 84.5,63.5C 83.0689,63.1193 82.2355,62.1193 82,60.5C 81.3333,52.1667 81.3333,43.8333 82,35.5C 82.66,33.6763 83.8267,32.343 85.5,31.5 Z"/></g>
<g><path style="opacity:1" fill="#ad938d" d="M 38.5,31.5 C 37.6373,33.4214 36.9707,35.4214 36.5,37.5C 35.508,44.9818 35.1746,52.6484 35.5,60.5C 34.3434,52.3437 34.1768,44.0104 35,35.5C 35.0572,33.0898 36.2239,31.7565 38.5,31.5 Z"/></g>
<g><path style="opacity:1" fill="#fbdf9b" d="M 307.5,40.5 C 307.741,43.0336 306.741,44.7002 304.5,45.5C 304.259,42.9664 305.259,41.2998 307.5,40.5 Z"/></g>
<g><path style="opacity:1" fill="#bcdbef" d="M 138.5,34.5 C 137.793,36.1344 136.627,37.4677 135,38.5C 134.83,48.342 134.33,58.0087 133.5,67.5C 133.334,57.4944 133.5,47.4944 134,37.5C 134.589,35.1367 136.089,34.1367 138.5,34.5 Z"/></g>
<g><path style="opacity:1" fill="#cdb5aa" d="M 132.5,29.5 C 131.093,31.3083 129.926,33.3083 129,35.5C 128.5,46.1615 128.333,56.8281 128.5,67.5C 127.195,65.6028 126.529,63.2695 126.5,60.5C 125.89,54.1787 125.556,47.8454 125.5,41.5C 122.833,41.5 120.167,41.5 117.5,41.5C 117.579,40.0695 117.246,38.7362 116.5,37.5C 115.007,36.8589 114.007,35.8589 113.5,34.5C 117.009,34.8079 118.676,36.8079 118.5,40.5C 120.167,40.5 121.833,40.5 123.5,40.5C 124.492,40.6716 125.158,40.3382 125.5,39.5C 126.114,36.6916 127.281,34.0249 129,31.5C 129.816,30.1772 130.983,29.5106 132.5,29.5 Z"/></g>
<g><path style="opacity:1" fill="#b8cde5" d="M 160.5,34.5 C 159.307,36.0541 158.14,37.7208 157,39.5C 155.566,47.4906 155.4,55.4906 156.5,63.5C 156.415,65.3328 155.748,66.6661 154.5,67.5C 154.334,57.4944 154.5,47.4944 155,37.5C 155.928,34.9648 157.762,33.9648 160.5,34.5 Z"/></g>
<g><path style="opacity:1" fill="#e4d2be" d="M 242.5,30.5 C 240.653,33.1995 239.653,36.1995 239.5,39.5C 239.863,43.6577 241.196,47.3244 243.5,50.5C 240.412,49.0803 238.412,46.747 237.5,43.5C 237.5,41.1667 237.5,38.8333 237.5,36.5C 238.247,33.6385 239.914,31.6385 242.5,30.5 Z"/></g>
<g><path style="opacity:1" fill="#51a7cb" d="M 46.5,34.5 C 43.0348,38.431 41.7015,43.0976 42.5,48.5C 41.6608,53.6637 42.9941,57.997 46.5,61.5C 44.5165,61.6168 42.8498,60.9501 41.5,59.5C 40.1667,51.8333 40.1667,44.1667 41.5,36.5C 42.8498,35.0499 44.5165,34.3832 46.5,34.5 Z"/></g>
<g><path style="opacity:1" fill="#698389" d="M 36.5,37.5 C 35.9897,46.6394 36.6564,55.6394 38.5,64.5C 36.0882,64.3059 35.0882,62.9726 35.5,60.5C 35.1746,52.6484 35.508,44.9818 36.5,37.5 Z"/></g>
<g><path style="opacity:1" fill="#5da7c5" d="M 93.5,34.5 C 92.7934,36.1344 91.6268,37.4677 90,38.5C 89.3333,44.8333 89.3333,51.1667 90,57.5C 92.0714,58.1029 93.2381,59.4362 93.5,61.5C 91.0968,61.607 89.2635,60.607 88,58.5C 87.1687,51.144 87.3354,43.8107 88.5,36.5C 89.8498,35.0499 91.5165,34.3832 93.5,34.5 Z"/></g>
<g><path style="opacity:1" fill="#bce6f4" d="M 189.5,50.5 C 190.117,56.5982 189.45,62.2649 187.5,67.5C 186.883,61.4018 187.55,55.7351 189.5,50.5 Z"/></g>
<g><path style="opacity:1" fill="#b3c6d8" d="M 168.5,28.5 C 173.368,29.1794 176.535,31.846 178,36.5C 178.167,41.6667 178.333,46.8333 178.5,52C 178.495,57.5457 177.828,62.7124 176.5,67.5C 176.666,57.8276 176.5,48.1609 176,38.5C 175.654,36.7818 175.154,35.1151 174.5,33.5C 172.163,32.157 170.163,30.4904 168.5,28.5 Z"/></g>
<g><path style="opacity:1" fill="#8dc4dd" d="M 121.5,64.5 C 122.929,61.6916 123.595,58.6916 123.5,55.5C 121.114,55.2587 119.114,55.9254 117.5,57.5C 117.5,56.5 117.5,55.5 117.5,54.5C 120.167,54.5 122.833,54.5 125.5,54.5C 126.264,58.8628 124.931,62.1961 121.5,64.5 Z"/></g>
<g><path style="opacity:1" fill="#bcdaec" d="M 234.5,29.5 C 236.083,31.5078 237.083,33.8411 237.5,36.5C 237.5,38.8333 237.5,41.1667 237.5,43.5C 237.154,51.7186 236.154,59.7186 234.5,67.5C 234.5,54.8333 234.5,42.1667 234.5,29.5 Z"/></g>
<g><path style="opacity:1" fill="#aaa4a0" d="M 117.5,57.5 C 117.833,60.5 116.5,61.8333 113.5,61.5C 114.533,59.9145 115.866,58.5812 117.5,57.5 Z"/></g>
<g><path style="opacity:1" fill="#f7f5de" d="M 165.5,34.5 C 167.39,34.2965 168.89,34.9632 170,36.5C 170.5,46.828 170.666,57.1613 170.5,67.5C 169.67,58.0087 169.17,48.342 169,38.5C 167.612,37.2642 166.446,35.9308 165.5,34.5 Z"/></g>
<g><path style="opacity:1" fill="#c2dbf0" d="M 223.5,34.5 C 224.886,37.2153 225.553,40.2153 225.5,43.5C 224.208,49.6646 224.208,55.8313 225.5,62C 225.453,64.2953 224.787,66.1286 223.5,67.5C 223.5,56.5 223.5,45.5 223.5,34.5 Z"/></g>
<g><path style="opacity:1" fill="#c9faf9" d="M 31.5,61.5 C 32.6935,61.9704 33.3601,62.9704 33.5,64.5C 33.3601,66.0296 32.6935,67.0296 31.5,67.5C 31.5,65.5 31.5,63.5 31.5,61.5 Z"/></g>
<g><path style="opacity:1" fill="#faf1c8" d="M 288.5,66.5 C 287.5,68.1667 286.167,69.5 284.5,70.5C 284.833,68.1667 286.167,66.8333 288.5,66.5 Z"/></g>
<g><path style="opacity:1" fill="#fde7b3" d="M 284.5,70.5 C 282.54,72.1563 280.54,73.823 278.5,75.5C 279.288,72.3791 281.288,70.7124 284.5,70.5 Z"/></g>
<g><path style="opacity:1" fill="#dbbea2" d="M 57.5,69.5 C 57.4208,70.9305 57.7542,72.2638 58.5,73.5C 56.7111,75.6104 55.3777,77.9437 54.5,80.5C 54.1667,80.5 53.8333,80.5 53.5,80.5C 53.5,79.5 53.5,78.5 53.5,77.5C 54.5573,76.794 54.2239,76.4607 52.5,76.5C 53.4054,75.2976 53.4054,73.9643 52.5,72.5C 53.7899,73.0577 54.6232,74.0577 55,75.5C 56.8241,74.2513 56.6574,73.0847 54.5,72C 55.0779,70.583 56.0779,69.7496 57.5,69.5 Z"/></g>
<g><path style="opacity:1" fill="#faf9f3" d="M 146.5,72.5 C 147.348,71.375 148.348,71.375 149.5,72.5C 149.5,75.1667 149.5,77.8333 149.5,80.5C 148.833,80.5 148.167,80.5 147.5,80.5C 147.806,77.6146 147.473,74.9479 146.5,72.5 Z"/></g>
<g><path style="opacity:1" fill="#fcdc8b" d="M 266.5,68.5 C 265.972,69.7206 265.305,70.8873 264.5,72C 261.936,73.3961 259.269,74.5627 256.5,75.5C 259.275,72.3954 262.608,70.0621 266.5,68.5 Z"/></g>
<g><path style="opacity:1" fill="#41393c" d="M 123.5,72.5 C 125.833,72.5 128.167,72.5 130.5,72.5C 130.663,74.8568 130.497,77.1902 130,79.5C 129.617,80.056 129.117,80.3893 128.5,80.5C 127.5,80.5 126.5,80.5 125.5,80.5C 124.833,80.5 124.167,80.5 123.5,80.5C 125.167,79.8333 126.833,79.1667 128.5,78.5C 129.885,77.0527 129.552,76.0527 127.5,75.5C 126.833,75.5 126.167,75.5 125.5,75.5C 124.094,75.0269 123.427,74.0269 123.5,72.5 Z"/></g>
<g><path style="opacity:1" fill="#faf9f2" d="M 142.5,72.5 C 143.167,72.5 143.833,72.5 144.5,72.5C 144.5,75.1667 144.5,77.8333 144.5,80.5C 143.833,80.1667 143.167,79.8333 142.5,79.5C 142.5,77.1667 142.5,74.8333 142.5,72.5 Z"/></g>
<g><path style="opacity:1" fill="#3d3c51" d="M 182.5,72.5 C 184.833,72.5 187.167,72.5 189.5,72.5C 190.11,73.391 190.443,74.391 190.5,75.5C 190.167,75.5 189.833,75.5 189.5,75.5C 188.167,75.5 187.5,76.1667 187.5,77.5C 186.761,77.369 186.094,77.5357 185.5,78C 186.793,78.49 188.127,78.6567 189.5,78.5C 189.833,79.1667 190.167,79.8333 190.5,80.5C 187.833,80.5 185.167,80.5 182.5,80.5C 182.5,77.8333 182.5,75.1667 182.5,72.5 Z"/></g>
<g><path style="opacity:1" fill="#44384d" d="M 202.5,72.5 C 205.5,72.5 208.5,72.5 211.5,72.5C 211.737,73.791 211.404,74.791 210.5,75.5C 210.167,75.5 209.833,75.5 209.5,75.5C 207.744,76.5521 207.077,78.2188 207.5,80.5C 207.167,80.5 206.833,80.5 206.5,80.5C 206.799,78.396 206.466,76.396 205.5,74.5C 204.893,74.6236 204.56,74.9569 204.5,75.5C 203.833,75.5 203.167,75.5 202.5,75.5C 202.5,74.5 202.5,73.5 202.5,72.5 Z"/></g>
<g><path style="opacity:1" fill="#353338" d="M 213.5,72.5 C 215.833,72.5 218.167,72.5 220.5,72.5C 220.5,73.1667 220.5,73.8333 220.5,74.5C 219.391,74.5569 218.391,74.8902 217.5,75.5C 216.833,75.5 216.167,75.5 215.5,75.5C 214.833,75.1667 214.167,74.8333 213.5,74.5C 213.5,73.8333 213.5,73.1667 213.5,72.5 Z"/></g>
<g><path style="opacity:1" fill="#826b77" d="M 9.5,78.5 C 10.3382,78.8417 10.6716,79.5084 10.5,80.5C 7.5,80.5 4.5,80.5 1.5,80.5C 1.5,77.8333 1.5,75.1667 1.5,72.5C 2.83333,72.5 4.16667,72.5 5.5,72.5C 5.5,74.5 5.5,76.5 5.5,78.5C 6.83333,78.5 8.16667,78.5 9.5,78.5 Z"/></g>
<g><path style="opacity:1" fill="#373232" d="M 12.5,72.5 C 14.8333,72.5 17.1667,72.5 19.5,72.5C 19.5,73.1667 19.5,73.8333 19.5,74.5C 18.8333,74.8333 18.1667,75.1667 17.5,75.5C 16.8333,75.5 16.1667,75.5 15.5,75.5C 14.609,74.8902 13.609,74.5569 12.5,74.5C 12.5,73.8333 12.5,73.1667 12.5,72.5 Z"/></g>
<g><path style="opacity:1" fill="#525b6d" d="M 45.5,72.5 C 47.8333,72.5 50.1667,72.5 52.5,72.5C 53.4054,73.9643 53.4054,75.2976 52.5,76.5C 52.1667,76.5 51.8333,76.5 51.5,76.5C 51.2893,74.5759 50.6226,74.2426 49.5,75.5C 47.5354,75.9483 47.2021,76.9483 48.5,78.5C 50.0709,77.6906 51.7376,77.3573 53.5,77.5C 53.5,78.5 53.5,79.5 53.5,80.5C 51.8958,81.287 51.2291,82.6203 51.5,84.5C 50.5,84.5 49.5,84.5 48.5,84.5C 51.3331,81.9413 50.6664,80.608 46.5,80.5C 46.1667,80.5 45.8333,80.5 45.5,80.5C 45.5,77.8333 45.5,75.1667 45.5,72.5 Z"/></g>
<g><path style="opacity:1" fill="#6e8cb3" d="M 58.5,69.5 C 59.8333,69.5 61.1667,69.5 62.5,69.5C 62.5792,70.9305 62.2458,72.2638 61.5,73.5C 62.6302,74.6223 63.2969,75.9557 63.5,77.5C 63.5,78.1667 63.5,78.8333 63.5,79.5C 60.8272,76.8218 59.1605,73.4885 58.5,69.5 Z"/></g>
<g><path style="opacity:1" fill="#56433a" d="M 65.5,72.5 C 68.1667,72.5 70.8333,72.5 73.5,72.5C 73.5,73.1667 73.5,73.8333 73.5,74.5C 72.8333,74.8333 72.1667,75.1667 71.5,75.5C 70.5,75.5 69.5,75.5 68.5,75.5C 68.44,74.9569 68.1067,74.6236 67.5,74.5C 66.5481,76.0453 66.2148,77.712 66.5,79.5C 66.5,79.8333 66.5,80.1667 66.5,80.5C 66.1667,80.5 65.8333,80.5 65.5,80.5C 65.5,77.8333 65.5,75.1667 65.5,72.5 Z"/></g>
<g><path style="opacity:1" fill="#84c0ed" d="M 103.5,72.5 C 106.167,73.5 106.167,74.5 103.5,75.5C 103.5,74.5 103.5,73.5 103.5,72.5 Z"/></g>
<g><path style="opacity:1" fill="#b8c1ca" d="M 179.5,72.5 C 180.5,73.8333 181.5,73.8333 182.5,72.5C 182.5,75.1667 182.5,77.8333 182.5,80.5C 181.5,80.5 180.5,80.5 179.5,80.5C 179.5,77.8333 179.5,75.1667 179.5,72.5 Z"/></g>
<g><path style="opacity:1" fill="#adeef4" d="M 20.5,72.5 C 21.1667,72.5 21.8333,72.5 22.5,72.5C 22.5,75.1667 22.5,77.8333 22.5,80.5C 22.1667,80.5 21.8333,80.5 21.5,80.5C 21.7214,77.7212 21.388,75.0545 20.5,72.5 Z"/></g>
<g><path style="opacity:1" fill="#eac090" d="M 112.5,72.5 C 112.5,75.1667 112.5,77.8333 112.5,80.5C 111.761,80.631 111.094,80.4643 110.5,80C 111.649,78.3963 111.649,76.7297 110.5,75C 110.639,73.699 111.305,72.8656 112.5,72.5 Z"/></g>
<g><path style="opacity:1" fill="#847d86" d="M 144.5,72.5 C 145.167,72.5 145.833,72.5 146.5,72.5C 147.473,74.9479 147.806,77.6146 147.5,80.5C 146.5,80.5 145.5,80.5 144.5,80.5C 144.5,77.8333 144.5,75.1667 144.5,72.5 Z"/></g>
<g><path style="opacity:1" fill="#866269" d="M 198.5,72.5 C 199.167,72.5 199.833,72.5 200.5,72.5C 200.5,75.1667 200.5,77.8333 200.5,80.5C 198.447,80.5979 196.78,79.9313 195.5,78.5C 196.209,77.596 197.209,77.2627 198.5,77.5C 198.5,75.8333 198.5,74.1667 198.5,72.5 Z"/></g>
<g><path style="opacity:1" fill="#c49673" d="M 211.5,72.5 C 212.167,72.5 212.833,72.5 213.5,72.5C 213.5,73.1667 213.5,73.8333 213.5,74.5C 213.5,76.1667 213.5,77.8333 213.5,79.5C 213.5,79.8333 213.5,80.1667 213.5,80.5C 212.5,80.5 211.5,80.5 210.5,80.5C 210.5,78.8333 210.5,77.1667 210.5,75.5C 211.404,74.791 211.737,73.791 211.5,72.5 Z"/></g>
<g><path style="opacity:1" fill="#535e96" d="M 19.5,72.5 C 19.8333,72.5 20.1667,72.5 20.5,72.5C 21.388,75.0545 21.7214,77.7212 21.5,80.5C 20.8333,80.5 20.1667,80.5 19.5,80.5C 19.5,80.1667 19.5,79.8333 19.5,79.5C 19.5,77.8333 19.5,76.1667 19.5,74.5C 19.5,73.8333 19.5,73.1667 19.5,72.5 Z"/></g>
<g><path style="opacity:1" fill="#effaf9" d="M 27.5,75.5 C 27.5,76.5 27.5,77.5 27.5,78.5C 24.8333,77.5 24.8333,76.5 27.5,75.5 Z"/></g>
<g><path style="opacity:1" fill="#9fdbf8" d="M 31.5,72.5 C 32.9063,72.9731 33.573,73.9731 33.5,75.5C 32.8333,75.8333 32.1667,76.1667 31.5,76.5C 31.5,75.1667 31.5,73.8333 31.5,72.5 Z"/></g>
<g><path style="opacity:1" fill="#c49376" d="M 45.5,72.5 C 45.5,75.1667 45.5,77.8333 45.5,80.5C 44.8333,80.5 44.1667,80.5 43.5,80.5C 43.6716,79.5084 43.3382,78.8417 42.5,78.5C 42.5,77.8333 42.5,77.1667 42.5,76.5C 42.0882,74.0274 43.0882,72.6941 45.5,72.5 Z"/></g>
<g><path style="opacity:1" fill="#d0a06c" d="M 51.5,76.5 C 50.5084,76.6716 49.8417,76.3382 49.5,75.5C 50.6226,74.2426 51.2893,74.5759 51.5,76.5 Z"/></g>
<g><path style="opacity:1" fill="#e4f0eb" d="M 65.5,72.5 C 65.5,75.1667 65.5,77.8333 65.5,80.5C 64.8333,80.5 64.1667,80.5 63.5,80.5C 63.5,80.1667 63.5,79.8333 63.5,79.5C 63.5,78.8333 63.5,78.1667 63.5,77.5C 64.1667,75.8333 64.8333,74.1667 65.5,72.5 Z"/></g>
<g><path style="opacity:1" fill="#749aba" d="M 68.5,75.5 C 68.5,76.5 68.5,77.5 68.5,78.5C 68.1583,79.3382 67.4916,79.6716 66.5,79.5C 66.2148,77.712 66.5481,76.0453 67.5,74.5C 68.1067,74.6236 68.44,74.9569 68.5,75.5 Z"/></g>
<g><path style="opacity:1" fill="#7a94af" d="M 73.5,72.5 C 75.8896,72.6848 76.8896,74.0182 76.5,76.5C 76.8896,78.9818 75.8896,80.3152 73.5,80.5C 73.5,80.1667 73.5,79.8333 73.5,79.5C 73.5,77.8333 73.5,76.1667 73.5,74.5C 73.5,73.8333 73.5,73.1667 73.5,72.5 Z"/></g>
<g><path style="opacity:1" fill="#7480ad" d="M 90.5,72.5 C 92.1993,72.5271 93.5326,73.1938 94.5,74.5C 94.5,76.1667 94.5,77.8333 94.5,79.5C 94.1667,79.5 93.8333,79.5 93.5,79.5C 91.9724,78.1979 90.9724,76.5313 90.5,74.5C 90.5,73.8333 90.5,73.1667 90.5,72.5 Z"/></g>
<g><path style="opacity:1" fill="#d6b492" d="M 96.5,72.5 C 96.5,75.1667 96.5,77.8333 96.5,80.5C 95.5084,80.6716 94.8417,80.3382 94.5,79.5C 94.5,77.8333 94.5,76.1667 94.5,74.5C 94.5,73.1667 95.1667,72.5 96.5,72.5 Z"/></g>
<g><path style="opacity:1" fill="#faf9d5" d="M 127.5,76.5 C 127.5,76.1667 127.5,75.8333 127.5,75.5C 129.552,76.0527 129.885,77.0527 128.5,78.5C 128.672,77.5084 128.338,76.8417 127.5,76.5 Z"/></g>
<g><path style="opacity:1" fill="#bc9479" d="M 132.5,72.5 C 133.167,72.5 133.833,72.5 134.5,72.5C 134.5,75.1667 134.5,77.8333 134.5,80.5C 133.833,80.5 133.167,80.5 132.5,80.5C 132.5,77.8333 132.5,75.1667 132.5,72.5 Z"/></g>
<g><path style="opacity:1" fill="#415ba0" d="M 156.5,72.5 C 157.167,72.5 157.833,72.5 158.5,72.5C 158.975,75.0821 158.308,77.0821 156.5,78.5C 156.5,76.5 156.5,74.5 156.5,72.5 Z"/></g>
<g><path style="opacity:1" fill="#ece0b4" d="M 189.5,72.5 C 190.167,72.5 190.833,72.5 191.5,72.5C 191.5,75.1667 191.5,77.8333 191.5,80.5C 191.167,80.5 190.833,80.5 190.5,80.5C 190.167,79.8333 189.833,79.1667 189.5,78.5C 190.404,77.791 190.737,76.791 190.5,75.5C 190.443,74.391 190.11,73.391 189.5,72.5 Z"/></g>
<g><path style="opacity:1" fill="#66a8d8" d="M 213.5,74.5 C 214.167,74.8333 214.833,75.1667 215.5,75.5C 215.5,76.5 215.5,77.5 215.5,78.5C 214.833,78.8333 214.167,79.1667 213.5,79.5C 213.5,77.8333 213.5,76.1667 213.5,74.5 Z"/></g>
<g><path style="opacity:1" fill="#4f86c1" d="M 220.5,72.5 C 221.167,72.8333 221.833,73.1667 222.5,73.5C 222.5,75.8333 222.5,78.1667 222.5,80.5C 221.833,80.5 221.167,80.5 220.5,80.5C 220.5,80.1667 220.5,79.8333 220.5,79.5C 220.5,77.8333 220.5,76.1667 220.5,74.5C 220.5,73.8333 220.5,73.1667 220.5,72.5 Z"/></g>
<g><path style="opacity:1" fill="#bd9979" d="M 225.5,72.5 C 225.5,75.1667 225.5,77.8333 225.5,80.5C 224.5,80.5 223.5,80.5 222.5,80.5C 222.5,78.1667 222.5,75.8333 222.5,73.5C 223.391,72.8902 224.391,72.5569 225.5,72.5 Z"/></g>
<g><path style="opacity:1" fill="#434348" d="M 225.5,72.5 C 227.5,72.5 229.5,72.5 231.5,72.5C 231.5,75.1667 231.5,77.8333 231.5,80.5C 229.5,80.5 227.5,80.5 225.5,80.5C 225.5,77.8333 225.5,75.1667 225.5,72.5 Z"/></g>
<g><path style="opacity:1" fill="#ebc598" d="M 12.5,72.5 C 12.5,73.1667 12.5,73.8333 12.5,74.5C 12.5,76.1667 12.5,77.8333 12.5,79.5C 12.5,79.8333 12.5,80.1667 12.5,80.5C 11.8333,80.5 11.1667,80.5 10.5,80.5C 10.6716,79.5084 10.3382,78.8417 9.5,78.5C 9.46095,75.911 10.461,73.911 12.5,72.5 Z"/></g>
<g><path style="opacity:1" fill="#dcb07d" d="M 22.5,72.5 C 23.1667,72.5 23.8333,72.5 24.5,72.5C 24.5,75.1667 24.5,77.8333 24.5,80.5C 23.8333,80.5 23.1667,80.5 22.5,80.5C 22.5,77.8333 22.5,75.1667 22.5,72.5 Z"/></g>
<g><path style="opacity:1" fill="#eac59d" d="M 37.5,72.5 C 36.5398,74.4607 35.2065,76.1274 33.5,77.5C 33.5,76.8333 33.5,76.1667 33.5,75.5C 34.2362,73.7706 35.5695,72.7706 37.5,72.5 Z"/></g>
<g><path style="opacity:1" fill="#827579" d="M 37.5,72.5 C 37.8333,72.5 38.1667,72.5 38.5,72.5C 38.687,74.5643 39.187,76.5643 40,78.5C 40.9772,79.7736 41.8106,79.7736 42.5,78.5C 43.3382,78.8417 43.6716,79.5084 43.5,80.5C 39.5,79.1667 35.5,79.1667 31.5,80.5C 31.5,79.5 31.5,78.5 31.5,77.5C 32.1667,77.5 32.8333,77.5 33.5,77.5C 35.2065,76.1274 36.5398,74.4607 37.5,72.5 Z"/></g>
<g><path style="opacity:1" fill="#fac990" d="M 84.5,72.5 C 84.5,75.1667 84.5,77.8333 84.5,80.5C 83.2749,79.8478 82.6083,78.6811 82.5,77C 82.3068,74.9919 82.9735,73.4919 84.5,72.5 Z"/></g>
<g><path style="opacity:1" fill="#cdbaa3" d="M 90.5,74.5 C 90.9724,76.5313 91.9724,78.1979 93.5,79.5C 92.791,80.404 91.791,80.7373 90.5,80.5C 90.1667,79.5 89.5,78.8333 88.5,78.5C 88.9175,77.7784 89.5842,77.2784 90.5,77C 89.5842,76.7216 88.9175,76.2216 88.5,75.5C 89.1667,75.1667 89.8333,74.8333 90.5,74.5 Z"/></g>
<g><path style="opacity:1" fill="#4c4c59" d="M 96.5,72.5 C 98.8333,72.5 101.167,72.5 103.5,72.5C 103.5,73.5 103.5,74.5 103.5,75.5C 102.466,76.6871 101.133,77.5204 99.5,78C 101.715,78.1705 103.715,78.8372 105.5,80C 102.518,80.498 99.5184,80.6646 96.5,80.5C 96.5,77.8333 96.5,75.1667 96.5,72.5 Z"/></g>
<g><path style="opacity:1" fill="#625551" d="M 149.5,72.5 C 151.833,72.5 154.167,72.5 156.5,72.5C 156.5,74.5 156.5,76.5 156.5,78.5C 154.263,79.449 151.929,80.1156 149.5,80.5C 149.5,77.8333 149.5,75.1667 149.5,72.5 Z"/></g>
<g><path style="opacity:1" fill="#cefaf9" d="M 189.5,75.5 C 189.5,76.8333 188.833,77.5 187.5,77.5C 187.5,76.1667 188.167,75.5 189.5,75.5 Z"/></g>
<g><path style="opacity:1" fill="#703e53" d="M 191.5,72.5 C 192.167,72.5 192.833,72.5 193.5,72.5C 193.969,74.9946 193.969,77.6613 193.5,80.5C 192.833,80.5 192.167,80.5 191.5,80.5C 191.5,77.8333 191.5,75.1667 191.5,72.5 Z"/></g>
<g><path style="opacity:1" fill="#92a0b5" d="M 193.5,72.5 C 195.017,72.5106 196.184,73.1772 197,74.5C 197.278,73.5842 197.778,72.9175 198.5,72.5C 198.5,74.1667 198.5,75.8333 198.5,77.5C 197.209,77.2627 196.209,77.596 195.5,78.5C 194.833,79.1667 194.167,79.8333 193.5,80.5C 193.969,77.6613 193.969,74.9946 193.5,72.5 Z"/></g>
<g><path style="opacity:1" fill="#cda078" d="M 220.5,74.5 C 220.5,76.1667 220.5,77.8333 220.5,79.5C 219.391,79.4431 218.391,79.1098 217.5,78.5C 217.5,77.5 217.5,76.5 217.5,75.5C 218.391,74.8902 219.391,74.5569 220.5,74.5 Z"/></g>
<g><path style="opacity:1" fill="#628dba" d="M 12.5,74.5 C 13.609,74.5569 14.609,74.8902 15.5,75.5C 15.5,76.5 15.5,77.5 15.5,78.5C 14.609,79.1098 13.609,79.4431 12.5,79.5C 12.5,77.8333 12.5,76.1667 12.5,74.5 Z"/></g>
<g><path style="opacity:1" fill="#ebc287" d="M 19.5,74.5 C 19.5,76.1667 19.5,77.8333 19.5,79.5C 18.8333,79.1667 18.1667,78.8333 17.5,78.5C 17.5,77.5 17.5,76.5 17.5,75.5C 18.1667,75.1667 18.8333,74.8333 19.5,74.5 Z"/></g>
<g><path style="opacity:1" fill="#5a77a5" d="M 38.5,72.5 C 40.1942,73.5274 41.5275,74.8608 42.5,76.5C 42.5,77.1667 42.5,77.8333 42.5,78.5C 41.8106,79.7736 40.9772,79.7736 40,78.5C 39.187,76.5643 38.687,74.5643 38.5,72.5 Z"/></g>
<g><path style="opacity:1" fill="#d4a67b" d="M 73.5,74.5 C 73.5,76.1667 73.5,77.8333 73.5,79.5C 72.8333,79.1667 72.1667,78.8333 71.5,78.5C 71.5,77.5 71.5,76.5 71.5,75.5C 72.1667,75.1667 72.8333,74.8333 73.5,74.5 Z"/></g>
<g><path style="opacity:1" fill="#f0ecbf" d="M 120.5,72.5 C 121.167,72.5 121.833,72.5 122.5,72.5C 121.612,75.0545 121.279,77.7212 121.5,80.5C 121.167,80.5 120.833,80.5 120.5,80.5C 120.5,79.8333 120.5,79.1667 120.5,78.5C 120.5,77.5 120.5,76.5 120.5,75.5C 120.5,74.5 120.5,73.5 120.5,72.5 Z"/></g>
<g><path style="opacity:1" fill="#89b4dc" d="M 130.5,72.5 C 131.167,72.5 131.833,72.5 132.5,72.5C 132.5,75.1667 132.5,77.8333 132.5,80.5C 132.04,81.9992 130.707,82.9992 128.5,83.5C 128.5,82.5 128.5,81.5 128.5,80.5C 129.117,80.3893 129.617,80.056 130,79.5C 130.497,77.1902 130.663,74.8568 130.5,72.5 Z"/></g>
<g><path style="opacity:1" fill="#95c6e8" d="M 200.5,72.5 C 201.167,72.5 201.833,72.5 202.5,72.5C 202.5,73.5 202.5,74.5 202.5,75.5C 202.923,77.7812 202.256,79.4479 200.5,80.5C 200.5,77.8333 200.5,75.1667 200.5,72.5 Z"/></g>
<g><path style="opacity:1" fill="#b4ecf5" d="M 209.5,75.5 C 209.923,77.7812 209.256,79.4479 207.5,80.5C 207.077,78.2188 207.744,76.5521 209.5,75.5 Z"/></g>
<g><path style="opacity:1" fill="#758abe" d="M 231.5,72.5 C 232.748,73.3339 233.415,74.6672 233.5,76.5C 233.415,78.3328 232.748,79.6661 231.5,80.5C 231.5,77.8333 231.5,75.1667 231.5,72.5 Z"/></g>
<g><path style="opacity:1" fill="#67595d" d="M 57.5,69.5 C 57.8333,69.5 58.1667,69.5 58.5,69.5C 59.1605,73.4885 60.8272,76.8218 63.5,79.5C 63.5,79.8333 63.5,80.1667 63.5,80.5C 60.5,79.1667 57.5,79.1667 54.5,80.5C 55.3777,77.9437 56.7111,75.6104 58.5,73.5C 57.7542,72.2638 57.4208,70.9305 57.5,69.5 Z"/></g>
<g><path style="opacity:1" fill="#4a495a" d="M 112.5,72.5 C 115.167,72.5 117.833,72.5 120.5,72.5C 120.5,73.5 120.5,74.5 120.5,75.5C 119.17,76.8321 117.503,77.6655 115.5,78C 117.134,78.4935 118.801,78.6602 120.5,78.5C 120.5,79.1667 120.5,79.8333 120.5,80.5C 117.833,80.5 115.167,80.5 112.5,80.5C 112.5,77.8333 112.5,75.1667 112.5,72.5 Z"/></g>
<g><path style="opacity:1" fill="#9b838e" d="M 122.5,72.5 C 122.833,72.5 123.167,72.5 123.5,72.5C 123.427,74.0269 124.094,75.0269 125.5,75.5C 125.842,76.3382 126.508,76.6716 127.5,76.5C 128.338,76.8417 128.672,77.5084 128.5,78.5C 126.833,79.1667 125.167,79.8333 123.5,80.5C 122.833,80.5 122.167,80.5 121.5,80.5C 121.279,77.7212 121.612,75.0545 122.5,72.5 Z"/></g>
<g><path style="opacity:1" fill="#c39f85" d="M 158.5,72.5 C 159.222,72.9175 159.722,73.5842 160,74.5C 160.708,73.6195 161.542,72.9528 162.5,72.5C 162.104,75.721 160.771,78.3877 158.5,80.5C 157.167,80.5 156.5,79.8333 156.5,78.5C 158.308,77.0821 158.975,75.0821 158.5,72.5 Z"/></g>
<g><path style="opacity:1" fill="#5b535b" d="M 162.5,72.5 C 162.833,72.5 163.167,72.5 163.5,72.5C 163.776,75.7186 165.109,78.3852 167.5,80.5C 164.5,79.1667 161.5,79.1667 158.5,80.5C 160.771,78.3877 162.104,75.721 162.5,72.5 Z"/></g>
<g><path style="opacity:1" fill="#7491b8" d="M 163.5,72.5 C 165.479,73.8121 167.145,75.4788 168.5,77.5C 168.5,78.5 168.5,79.5 168.5,80.5C 168.167,80.5 167.833,80.5 167.5,80.5C 165.109,78.3852 163.776,75.7186 163.5,72.5 Z"/></g>
<g><path style="opacity:1" fill="#97878f" d="M 179.5,72.5 C 179.5,75.1667 179.5,77.8333 179.5,80.5C 175.85,79.3252 172.183,79.3252 168.5,80.5C 168.5,79.5 168.5,78.5 168.5,77.5C 168.5,75.8333 168.5,74.1667 168.5,72.5C 171.325,72.1616 173.492,73.1616 175,75.5C 175.483,74.552 175.649,73.552 175.5,72.5C 176.833,72.5 178.167,72.5 179.5,72.5 Z"/></g>
<g><path style="opacity:1" fill="#dcaf88" d="M 206.5,80.5 C 204.744,79.4479 204.077,77.7812 204.5,75.5C 204.56,74.9569 204.893,74.6236 205.5,74.5C 206.466,76.396 206.799,78.396 206.5,80.5 Z"/></g>
<g><path style="opacity:1" fill="#3a3533" d="M 15.5,78.5 C 16.1667,78.5 16.8333,78.5 17.5,78.5C 18.1667,78.8333 18.8333,79.1667 19.5,79.5C 19.5,79.8333 19.5,80.1667 19.5,80.5C 17.1667,80.5 14.8333,80.5 12.5,80.5C 12.5,80.1667 12.5,79.8333 12.5,79.5C 13.609,79.4431 14.609,79.1098 15.5,78.5 Z"/></g>
<g><path style="opacity:1" fill="#4e4553" d="M 24.5,72.5 C 26.8333,72.5 29.1667,72.5 31.5,72.5C 31.5,73.8333 31.5,75.1667 31.5,76.5C 30.0413,76.5674 28.7079,76.2341 27.5,75.5C 24.8333,76.5 24.8333,77.5 27.5,78.5C 28.7079,77.7659 30.0413,77.4326 31.5,77.5C 31.5,78.5 31.5,79.5 31.5,80.5C 29.1667,80.5 26.8333,80.5 24.5,80.5C 24.5,77.8333 24.5,75.1667 24.5,72.5 Z"/></g>
<g><path style="opacity:1" fill="#383434" d="M 68.5,78.5 C 69.5,78.5 70.5,78.5 71.5,78.5C 72.1667,78.8333 72.8333,79.1667 73.5,79.5C 73.5,79.8333 73.5,80.1667 73.5,80.5C 71.1667,80.5 68.8333,80.5 66.5,80.5C 66.5,80.1667 66.5,79.8333 66.5,79.5C 67.4916,79.6716 68.1583,79.3382 68.5,78.5 Z"/></g>
<g><path style="opacity:1" fill="#464352" d="M 84.5,72.5 C 86.5,72.5 88.5,72.5 90.5,72.5C 90.5,73.1667 90.5,73.8333 90.5,74.5C 89.8333,74.8333 89.1667,75.1667 88.5,75.5C 87.1667,76.5 87.1667,77.5 88.5,78.5C 89.5,78.8333 90.1667,79.5 90.5,80.5C 88.5,80.5 86.5,80.5 84.5,80.5C 84.5,77.8333 84.5,75.1667 84.5,72.5 Z"/></g>
<g><path style="opacity:1" fill="#464e6e" d="M 134.5,72.5 C 134.833,72.5 135.167,72.5 135.5,72.5C 135.025,75.0821 135.692,77.0821 137.5,78.5C 137.833,78.5 138.167,78.5 138.5,78.5C 138.833,78.5 139.167,78.5 139.5,78.5C 139.56,79.0431 139.893,79.3764 140.5,79.5C 141.474,77.2573 141.808,74.924 141.5,72.5C 141.833,72.5 142.167,72.5 142.5,72.5C 142.5,74.8333 142.5,77.1667 142.5,79.5C 140.052,80.4731 137.385,80.8064 134.5,80.5C 134.5,77.8333 134.5,75.1667 134.5,72.5 Z"/></g>
<g><path style="opacity:1" fill="#a46c4b" d="M 139.5,72.5 C 140.167,72.5 140.833,72.5 141.5,72.5C 141.808,74.924 141.474,77.2573 140.5,79.5C 139.893,79.3764 139.56,79.0431 139.5,78.5C 139.5,76.5 139.5,74.5 139.5,72.5 Z"/></g>
<g><path style="opacity:1" fill="#d9f9f6" d="M 135.5,72.5 C 136.833,72.5 138.167,72.5 139.5,72.5C 139.5,74.5 139.5,76.5 139.5,78.5C 139.167,78.5 138.833,78.5 138.5,78.5C 138.167,73.1667 137.833,73.1667 137.5,78.5C 135.692,77.0821 135.025,75.0821 135.5,72.5 Z"/></g>
<g><path style="opacity:1" fill="#353538" d="M 215.5,78.5 C 216.167,78.5 216.833,78.5 217.5,78.5C 218.391,79.1098 219.391,79.4431 220.5,79.5C 220.5,79.8333 220.5,80.1667 220.5,80.5C 218.167,80.5 215.833,80.5 213.5,80.5C 213.5,80.1667 213.5,79.8333 213.5,79.5C 214.167,79.1667 214.833,78.8333 215.5,78.5 Z"/></g>
<g><path style="opacity:1" fill="#fbdf8e" d="M 256.5,75.5 C 254.807,78.6818 252.141,80.3484 248.5,80.5C 248.369,79.6236 248.702,78.9569 249.5,78.5C 251.974,77.6805 254.307,76.6805 256.5,75.5 Z"/></g>
<g><path style="opacity:1" fill="#fcd681" d="M 272.5,78.5 C 271.032,79.8057 269.699,81.3057 268.5,83C 267.552,83.4828 266.552,83.6495 265.5,83.5C 266.848,80.491 269.181,78.8244 272.5,78.5 Z"/></g>
<g><path style="opacity:1" fill="#c9a482" d="M 46.5,80.5 C 50.6664,80.608 51.3331,81.9413 48.5,84.5C 47.325,84.719 46.325,84.3857 45.5,83.5C 46.1272,82.5832 46.4606,81.5832 46.5,80.5 Z"/></g>
<g><path style="opacity:1" fill="#d5b28f" d="M 125.5,80.5 C 126.5,80.5 127.5,80.5 128.5,80.5C 128.5,81.5 128.5,82.5 128.5,83.5C 126.5,83.5 125.5,82.5 125.5,80.5 Z"/></g>
<g><path style="opacity:1" fill="#fbe6b8" d="M 126.5,88.5 C 125.508,88.3284 124.842,88.6618 124.5,89.5C 122.182,87.8148 121.182,85.4815 121.5,82.5C 125.009,82.8079 126.676,84.8079 126.5,88.5 Z"/></g>
<g><path style="opacity:1" fill="#fce09e" d="M 228.5,90.5 C 227.393,92.9689 225.393,93.9689 222.5,93.5C 223.784,91.3862 225.784,90.3862 228.5,90.5 Z"/></g>
<g><path style="opacity:1" fill="#fcdb8d" d="M 245.5,93.5 C 245.423,94.7498 244.756,95.5831 243.5,96C 240.479,96.8494 237.479,97.6827 234.5,98.5C 237.465,95.5023 241.132,93.8357 245.5,93.5 Z"/></g>
<g><path style="opacity:1" fill="#fcd56a" d="M 126.5,88.5 C 128.963,90.4611 131.297,92.6278 133.5,95C 136.237,96.0764 138.904,97.243 141.5,98.5C 141.5,99.1667 141.5,99.8333 141.5,100.5C 140.624,100.369 139.957,100.702 139.5,101.5C 140.522,102.354 141.355,103.354 142,104.5C 143.395,103.57 144.895,103.57 146.5,104.5C 148.977,105.385 150.977,106.718 152.5,108.5C 142.574,106.954 134.074,102.62 127,95.5C 125.878,93.5932 125.045,91.5932 124.5,89.5C 124.842,88.6618 125.508,88.3284 126.5,88.5 Z"/></g>
<g><path style="opacity:1" fill="#fcda81" d="M 216.5,95.5 C 216.119,96.9311 215.119,97.7645 213.5,98C 208.878,99.1564 204.211,99.9897 199.5,100.5C 199.611,99.8826 199.944,99.3826 200.5,99C 205.779,97.5132 211.112,96.3465 216.5,95.5 Z"/></g>
<g><path style="opacity:1" fill="#fbe7be" d="M 141.5,98.5 C 143.544,99.5082 145.544,100.508 147.5,101.5C 145.435,101.483 143.435,101.15 141.5,100.5C 141.5,99.8333 141.5,99.1667 141.5,98.5 Z"/></g>
<g><path style="opacity:1" fill="#fdda85" d="M 215.5,104.5 C 212.411,105.785 209.078,106.451 205.5,106.5C 208.505,104.094 211.839,103.428 215.5,104.5 Z"/></g>
<g><path style="opacity:1" fill="#fcd1b8" d="M 204.5,106.5 C 203.448,108.256 201.781,108.923 199.5,108.5C 200.552,106.744 202.219,106.077 204.5,106.5 Z"/></g>
</svg>
